<svg width="119.664062" height="40.000000" viewBox="0 0 119.664 40" fill="none" xmlns="http://www.w3.org/2000/svg" xmlns:xlink="http://www.w3.org/1999/xlink">
	<desc>
			Created with Pixso.
	</desc>
	<defs>
		<clipPath id="clip4_7346">
			<rect id="download_en-US.svg" rx="0.000000" width="118.664070" height="39.000000" transform="translate(0.500000 0.500000)" fill="white" fill-opacity="0"/>
		</clipPath>
	</defs>
	<g clip-path="url(#clip4_7346)">
		<path id="Vector" d="M110.13 0L9.53 0C9.16 0 8.8 0 8.44 0C8.13 0 7.83 0 7.52 0.01C6.84 0.02 6.17 0.08 5.51 0.19C4.85 0.3 4.21 0.51 3.61 0.81C3.01 1.12 2.47 1.52 1.99 1.99C1.52 2.47 1.12 3.01 0.81 3.61C0.51 4.21 0.3 4.85 0.19 5.52C0.08 6.18 0.02 6.85 0.01 7.52C0 7.83 0 8.13 0 8.44L0 31.55C0 31.86 0 32.16 0.01 32.48C0.02 33.15 0.08 33.82 0.19 34.48C0.3 35.14 0.51 35.78 0.81 36.38C1.12 36.98 1.52 37.53 1.99 38C2.47 38.47 3.01 38.87 3.61 39.17C4.21 39.48 4.85 39.69 5.51 39.81C6.17 39.91 6.84 39.97 7.52 39.98C7.83 39.99 8.13 39.99 8.44 39.99C8.8 40 9.16 40 9.53 40L110.13 40C110.49 40 110.85 40 111.21 39.99C111.52 39.99 111.83 39.99 112.14 39.98C112.81 39.97 113.47 39.91 114.14 39.81C114.8 39.69 115.44 39.48 116.04 39.17C116.64 38.87 117.19 38.47 117.66 38C118.14 37.52 118.54 36.98 118.84 36.38C119.14 35.78 119.35 35.14 119.46 34.48C119.57 33.82 119.64 33.15 119.65 32.48C119.65 32.16 119.65 31.86 119.65 31.55C119.66 31.19 119.66 30.83 119.66 30.46L119.66 9.53C119.66 9.16 119.66 8.8 119.65 8.44C119.65 8.13 119.65 7.83 119.65 7.52C119.64 6.85 119.57 6.18 119.46 5.52C119.35 4.85 119.14 4.21 118.84 3.61C118.23 2.41 117.25 1.43 116.04 0.81C115.44 0.51 114.8 0.3 114.14 0.19C113.47 0.08 112.81 0.02 112.14 0.01C111.83 0 111.52 0 111.21 0C110.85 0 110.49 0 110.13 0Z" fill="#A6A6A6" fill-opacity="1.000000" fill-rule="nonzero"/>
		<path id="Vector" d="M8.44 39.12C8.14 39.12 7.84 39.12 7.54 39.11C6.91 39.1 6.29 39.05 5.67 38.95C5.09 38.85 4.53 38.66 4.01 38.4C3.49 38.14 3.02 37.79 2.61 37.38C2.2 36.97 1.85 36.5 1.59 35.99C1.33 35.46 1.14 34.91 1.05 34.33C0.95 33.71 0.89 33.08 0.88 32.45C0.88 32.24 0.87 31.54 0.87 31.54L0.87 8.44C0.87 8.44 0.88 7.75 0.88 7.54C0.89 6.92 0.95 6.29 1.05 5.67C1.14 5.09 1.33 4.53 1.59 4.01C1.85 3.49 2.2 3.02 2.61 2.61C3.02 2.2 3.49 1.86 4.01 1.59C4.53 1.33 5.09 1.14 5.66 1.05C6.28 0.95 6.91 0.89 7.54 0.88L8.44 0.87L111.21 0.87L112.12 0.88C112.75 0.89 113.37 0.94 113.98 1.04C114.56 1.14 115.13 1.33 115.65 1.59C116.69 2.13 117.53 2.97 118.07 4.01C118.33 4.53 118.51 5.09 118.6 5.66C118.71 6.29 118.76 6.92 118.78 7.55C118.78 7.83 118.78 8.14 118.78 8.44C118.79 8.81 118.79 9.17 118.79 9.53L118.79 30.46C118.79 30.82 118.79 31.18 118.78 31.54C118.78 31.86 118.78 32.16 118.77 32.46C118.76 33.09 118.71 33.71 118.6 34.32C118.51 34.9 118.33 35.46 118.06 35.99C117.8 36.5 117.46 36.97 117.05 37.37C116.64 37.79 116.17 38.13 115.65 38.4C115.12 38.66 114.56 38.85 113.98 38.95C113.36 39.05 112.74 39.1 112.11 39.11C111.82 39.12 111.51 39.12 111.21 39.12L110.13 39.12L8.44 39.12Z" fill="#000000" fill-opacity="1.000000" fill-rule="nonzero"/>
		<path id="&lt;Path&gt;" d="M24.76 20.3C24.77 19.46 25 18.64 25.41 17.92C25.82 17.19 26.41 16.58 27.12 16.14C26.67 15.5 26.07 14.97 25.38 14.59C24.69 14.22 23.92 14.01 23.13 13.99C21.45 13.81 19.82 14.99 18.97 14.99C18.09 14.99 16.78 14 15.36 14.03C14.44 14.06 13.55 14.33 12.76 14.81C11.98 15.29 11.33 15.96 10.88 16.76C8.95 20.11 10.39 25.03 12.25 27.74C13.17 29.06 14.26 30.54 15.67 30.49C17.06 30.43 17.58 29.61 19.25 29.61C20.91 29.61 21.4 30.49 22.84 30.46C24.33 30.43 25.27 29.12 26.16 27.79C26.83 26.84 27.34 25.8 27.68 24.69C26.82 24.33 26.08 23.72 25.56 22.93C25.04 22.15 24.76 21.23 24.76 20.3Z" fill="#FFFFFF" fill-opacity="1.000000" fill-rule="nonzero"/>
		<path id="&lt;Path&gt;" d="M22.03 12.21C22.84 11.23 23.24 9.98 23.15 8.72C21.91 8.85 20.76 9.44 19.94 10.37C19.54 10.83 19.23 11.37 19.03 11.94C18.84 12.52 18.76 13.13 18.8 13.74C19.42 13.74 20.03 13.61 20.59 13.34C21.15 13.08 21.64 12.69 22.03 12.21Z" fill="#FFFFFF" fill-opacity="1.000000" fill-rule="nonzero"/>
		<path id="Vector" d="M42.3 27.13L37.56 27.13L36.43 30.49L34.42 30.49L38.91 18.07L40.99 18.07L45.47 30.49L43.43 30.49L42.3 27.13ZM38.05 25.59L41.81 25.59L39.96 20.14L39.91 20.14L38.05 25.59Z" fill="#FFFFFF" fill-opacity="1.000000" fill-rule="nonzero"/>
		<path id="Vector" d="M55.15 25.96C55.15 28.78 53.65 30.59 51.38 30.59C50.8 30.62 50.23 30.48 49.72 30.2C49.22 29.92 48.81 29.51 48.53 29L48.48 29L48.48 33.49L46.63 33.49L46.63 21.44L48.42 21.44L48.42 22.94L48.46 22.94C48.75 22.44 49.17 22.03 49.68 21.74C50.19 21.46 50.76 21.32 51.34 21.34C53.64 21.34 55.15 23.16 55.15 25.96ZM53.24 25.96C53.24 24.13 52.3 22.93 50.85 22.93C49.43 22.93 48.48 24.16 48.48 25.96C48.48 27.79 49.43 29.01 50.85 29.01C52.3 29.01 53.24 27.81 53.24 25.96Z" fill="#FFFFFF" fill-opacity="1.000000" fill-rule="nonzero"/>
		<path id="Vector" d="M65.12 25.96C65.12 28.78 63.61 30.59 61.34 30.59C60.77 30.62 60.19 30.48 59.69 30.2C59.19 29.92 58.77 29.51 58.49 29L58.45 29L58.45 33.49L56.59 33.49L56.59 21.44L58.39 21.44L58.39 22.94L58.42 22.94C58.71 22.44 59.14 22.03 59.64 21.74C60.15 21.46 60.73 21.32 61.31 21.34C63.6 21.34 65.12 23.16 65.12 25.96ZM63.21 25.96C63.21 24.13 62.26 22.93 60.82 22.93C59.4 22.93 58.44 24.16 58.44 25.96C58.44 27.79 59.4 29.01 60.82 29.01C62.26 29.01 63.21 27.81 63.21 25.96Z" fill="#FFFFFF" fill-opacity="1.000000" fill-rule="nonzero"/>
		<path id="Vector" d="M71.71 27.03C71.84 28.26 73.04 29.07 74.67 29.07C76.24 29.07 77.37 28.26 77.37 27.15C77.37 26.19 76.69 25.61 75.08 25.22L73.47 24.83C71.19 24.28 70.13 23.21 70.13 21.48C70.13 19.34 72 17.87 74.65 17.87C77.27 17.87 79.07 19.34 79.13 21.48L77.26 21.48C77.14 20.24 76.12 19.49 74.62 19.49C73.13 19.49 72.1 20.25 72.1 21.35C72.1 22.23 72.76 22.75 74.36 23.14L75.72 23.48C78.27 24.08 79.33 25.1 79.33 26.92C79.33 29.24 77.48 30.7 74.54 30.7C71.78 30.7 69.92 29.28 69.8 27.03L71.71 27.03Z" fill="#FFFFFF" fill-opacity="1.000000" fill-rule="nonzero"/>
		<path id="Vector" d="M83.34 19.29L83.34 21.44L85.06 21.44L85.06 22.91L83.34 22.91L83.34 27.9C83.34 28.68 83.69 29.04 84.44 29.04C84.65 29.03 84.85 29.02 85.05 28.99L85.05 30.46C84.71 30.52 84.37 30.55 84.02 30.54C82.19 30.54 81.47 29.85 81.47 28.1L81.47 22.91L80.16 22.91L80.16 21.44L81.47 21.44L81.47 19.29L83.34 19.29Z" fill="#FFFFFF" fill-opacity="1.000000" fill-rule="nonzero"/>
		<path id="Vector" d="M86.06 25.96C86.06 23.12 87.74 21.33 90.35 21.33C92.98 21.33 94.65 23.12 94.65 25.96C94.65 28.82 92.99 30.6 90.35 30.6C87.72 30.6 86.06 28.82 86.06 25.96ZM92.75 25.96C92.75 24.01 91.86 22.86 90.35 22.86C88.85 22.86 87.95 24.02 87.95 25.96C87.95 27.93 88.85 29.07 90.35 29.07C91.86 29.07 92.75 27.93 92.75 25.96Z" fill="#FFFFFF" fill-opacity="1.000000" fill-rule="nonzero"/>
		<path id="Vector" d="M96.18 21.44L97.95 21.44L97.95 22.98L98 22.98C98.12 22.5 98.4 22.07 98.79 21.77C99.19 21.48 99.68 21.32 100.17 21.34C100.39 21.34 100.6 21.37 100.81 21.41L100.81 23.15C100.54 23.07 100.26 23.03 99.98 23.04C99.71 23.03 99.44 23.07 99.19 23.18C98.94 23.28 98.71 23.44 98.53 23.63C98.34 23.83 98.21 24.07 98.12 24.32C98.04 24.58 98.01 24.85 98.04 25.12L98.04 30.49L96.18 30.49L96.18 21.44Z" fill="#FFFFFF" fill-opacity="1.000000" fill-rule="nonzero"/>
		<path id="Vector" d="M109.38 27.83C109.13 29.48 107.53 30.6 105.48 30.6C102.85 30.6 101.21 28.84 101.21 26.01C101.21 23.17 102.86 21.33 105.4 21.33C107.91 21.33 109.48 23.05 109.48 25.79L109.48 26.43L103.09 26.43L103.09 26.54C103.06 26.87 103.1 27.21 103.21 27.53C103.32 27.84 103.5 28.13 103.73 28.37C103.96 28.62 104.24 28.81 104.55 28.93C104.86 29.06 105.19 29.12 105.52 29.11C105.96 29.15 106.4 29.04 106.78 28.82C107.16 28.59 107.45 28.24 107.61 27.83L109.38 27.83ZM103.1 25.13L107.62 25.13C107.64 24.83 107.6 24.53 107.49 24.25C107.39 23.97 107.22 23.71 107.02 23.5C106.81 23.28 106.56 23.11 106.28 23C106 22.88 105.7 22.83 105.4 22.83C105.1 22.83 104.8 22.89 104.52 23C104.24 23.12 103.99 23.29 103.77 23.5C103.56 23.71 103.39 23.97 103.27 24.25C103.16 24.53 103.1 24.83 103.1 25.13Z" fill="#FFFFFF" fill-opacity="1.000000" fill-rule="nonzero"/>
		<path id="Vector" d="M37.82 8.73C38.21 8.7 38.6 8.76 38.97 8.9C39.33 9.04 39.66 9.26 39.93 9.54C40.2 9.83 40.4 10.17 40.52 10.54C40.64 10.91 40.68 11.3 40.63 11.69C40.63 13.6 39.6 14.69 37.82 14.69L35.67 14.69L35.67 8.73L37.82 8.73ZM36.59 13.85L37.72 13.85C38 13.87 38.27 13.82 38.53 13.72C38.79 13.61 39.02 13.45 39.21 13.25C39.4 13.04 39.54 12.79 39.62 12.53C39.71 12.26 39.73 11.98 39.69 11.7C39.72 11.43 39.7 11.15 39.62 10.88C39.53 10.62 39.39 10.38 39.21 10.17C39.02 9.97 38.79 9.81 38.53 9.7C38.27 9.6 38 9.55 37.72 9.57L36.59 9.57L36.59 13.85Z" fill="#FFFFFF" fill-opacity="1.000000" fill-rule="nonzero"/>
		<path id="Vector" d="M41.68 12.44C41.65 12.14 41.68 11.84 41.78 11.56C41.87 11.28 42.02 11.02 42.22 10.8C42.42 10.58 42.66 10.41 42.94 10.29C43.21 10.16 43.5 10.1 43.8 10.1C44.1 10.1 44.39 10.16 44.66 10.29C44.93 10.41 45.18 10.58 45.38 10.8C45.58 11.02 45.73 11.28 45.82 11.56C45.92 11.84 45.95 12.14 45.92 12.44C45.95 12.74 45.92 13.03 45.83 13.32C45.73 13.6 45.58 13.86 45.38 14.08C45.18 14.3 44.94 14.48 44.66 14.6C44.39 14.72 44.1 14.78 43.8 14.78C43.5 14.78 43.21 14.72 42.94 14.6C42.66 14.48 42.42 14.3 42.22 14.08C42.02 13.86 41.87 13.6 41.77 13.32C41.68 13.03 41.65 12.74 41.68 12.44ZM45.01 12.44C45.01 11.46 44.57 10.89 43.8 10.89C43.03 10.89 42.59 11.46 42.59 12.44C42.59 13.42 43.03 13.99 43.8 13.99C44.57 13.99 45.01 13.42 45.01 12.44Z" fill="#FFFFFF" fill-opacity="1.000000" fill-rule="nonzero"/>
		<path id="Vector" d="M51.57 14.69L50.65 14.69L49.72 11.38L49.65 11.38L48.72 14.69L47.81 14.69L46.56 10.19L47.47 10.19L48.27 13.63L48.34 13.63L49.26 10.19L50.12 10.19L51.04 13.63L51.11 13.63L51.92 10.19L52.8 10.19L51.57 14.69Z" fill="#FFFFFF" fill-opacity="1.000000" fill-rule="nonzero"/>
		<path id="Vector" d="M53.85 10.19L54.7 10.19L54.7 10.91L54.77 10.91C54.88 10.65 55.07 10.43 55.31 10.29C55.55 10.15 55.83 10.08 56.11 10.1C56.33 10.09 56.55 10.12 56.76 10.2C56.96 10.28 57.15 10.41 57.3 10.57C57.45 10.73 57.56 10.92 57.62 11.13C57.69 11.34 57.71 11.56 57.67 11.78L57.67 14.69L56.78 14.69L56.78 12C56.78 11.28 56.47 10.92 55.81 10.92C55.66 10.91 55.52 10.94 55.38 10.99C55.24 11.05 55.12 11.13 55.01 11.24C54.91 11.35 54.83 11.48 54.79 11.62C54.74 11.76 54.72 11.91 54.74 12.06L54.74 14.69L53.85 14.69L53.85 10.19Z" fill="#FFFFFF" fill-opacity="1.000000" fill-rule="nonzero"/>
		<path id="Vector" d="M59.09 8.43L59.98 8.43L59.98 14.69L59.09 14.69L59.09 8.43Z" fill="#FFFFFF" fill-opacity="1.000000" fill-rule="nonzero"/>
		<path id="Vector" d="M61.21 12.44C61.18 12.14 61.22 11.84 61.31 11.56C61.41 11.28 61.56 11.02 61.76 10.8C61.96 10.58 62.2 10.41 62.47 10.29C62.75 10.16 63.04 10.1 63.34 10.1C63.63 10.1 63.93 10.16 64.2 10.29C64.47 10.41 64.72 10.58 64.92 10.8C65.12 11.02 65.27 11.28 65.36 11.56C65.46 11.84 65.49 12.14 65.46 12.44C65.49 12.74 65.46 13.03 65.36 13.32C65.27 13.6 65.12 13.86 64.92 14.08C64.72 14.3 64.47 14.48 64.2 14.6C63.93 14.72 63.63 14.78 63.34 14.78C63.04 14.78 62.75 14.72 62.47 14.6C62.2 14.48 61.96 14.3 61.76 14.08C61.56 13.86 61.41 13.6 61.31 13.32C61.22 13.03 61.18 12.74 61.21 12.44ZM64.55 12.44C64.55 11.46 64.11 10.89 63.34 10.89C62.57 10.89 62.13 11.46 62.13 12.44C62.13 13.42 62.57 13.99 63.34 13.99C64.11 13.99 64.55 13.42 64.55 12.44Z" fill="#FFFFFF" fill-opacity="1.000000" fill-rule="nonzero"/>
		<path id="Vector" d="M66.4 13.42C66.4 12.61 67 12.14 68.07 12.07L69.29 12L69.29 11.62C69.29 11.14 68.98 10.87 68.37 10.87C67.87 10.87 67.53 11.05 67.43 11.37L66.57 11.37C66.66 10.6 67.39 10.1 68.41 10.1C69.54 10.1 70.17 10.66 70.17 11.62L70.17 14.69L69.32 14.69L69.32 14.06L69.25 14.06C69.11 14.29 68.91 14.47 68.67 14.6C68.43 14.72 68.16 14.78 67.9 14.77C67.71 14.79 67.52 14.77 67.34 14.71C67.16 14.65 66.99 14.55 66.85 14.43C66.71 14.3 66.59 14.14 66.51 13.97C66.44 13.8 66.4 13.61 66.4 13.42ZM69.29 13.03L69.29 12.66L68.19 12.73C67.57 12.77 67.29 12.98 67.29 13.38C67.29 13.78 67.64 14.02 68.12 14.02C68.27 14.03 68.41 14.02 68.54 13.98C68.68 13.93 68.81 13.87 68.92 13.77C69.02 13.68 69.11 13.57 69.18 13.44C69.24 13.31 69.28 13.18 69.29 13.03Z" fill="#FFFFFF" fill-opacity="1.000000" fill-rule="nonzero"/>
		<path id="Vector" d="M71.34 12.44C71.34 11.02 72.07 10.12 73.21 10.12C73.49 10.1 73.77 10.17 74.02 10.31C74.26 10.45 74.46 10.66 74.59 10.91L74.66 10.91L74.66 8.43L75.55 8.43L75.55 14.69L74.7 14.69L74.7 13.98L74.63 13.98C74.48 14.23 74.28 14.43 74.03 14.57C73.78 14.71 73.5 14.78 73.21 14.77C72.07 14.77 71.34 13.87 71.34 12.44ZM72.26 12.44C72.26 13.4 72.71 13.97 73.46 13.97C74.21 13.97 74.68 13.39 74.68 12.44C74.68 11.51 74.21 10.91 73.46 10.91C72.72 10.91 72.26 11.49 72.26 12.44Z" fill="#FFFFFF" fill-opacity="1.000000" fill-rule="nonzero"/>
		<path id="Vector" d="M79.22 12.44C79.2 12.14 79.23 11.84 79.32 11.56C79.42 11.28 79.57 11.02 79.77 10.8C79.97 10.58 80.21 10.41 80.49 10.29C80.76 10.16 81.05 10.1 81.35 10.1C81.65 10.1 81.94 10.16 82.21 10.29C82.48 10.41 82.73 10.58 82.93 10.8C83.13 11.02 83.28 11.28 83.37 11.56C83.47 11.84 83.5 12.14 83.47 12.44C83.5 12.74 83.47 13.03 83.37 13.32C83.28 13.6 83.13 13.86 82.93 14.08C82.73 14.3 82.48 14.48 82.21 14.6C81.94 14.72 81.65 14.78 81.35 14.78C81.05 14.78 80.76 14.72 80.48 14.6C80.21 14.48 79.97 14.3 79.77 14.08C79.57 13.86 79.42 13.6 79.32 13.32C79.23 13.03 79.2 12.74 79.22 12.44ZM82.56 12.44C82.56 11.46 82.12 10.89 81.35 10.89C80.58 10.89 80.14 11.46 80.14 12.44C80.14 13.42 80.58 13.99 81.35 13.99C82.12 13.99 82.56 13.42 82.56 12.44Z" fill="#FFFFFF" fill-opacity="1.000000" fill-rule="nonzero"/>
		<path id="Vector" d="M84.66 10.19L85.52 10.19L85.52 10.91L85.59 10.91C85.7 10.65 85.89 10.43 86.13 10.29C86.37 10.15 86.65 10.08 86.93 10.1C87.15 10.09 87.37 10.12 87.57 10.2C87.78 10.28 87.96 10.41 88.11 10.57C88.26 10.73 88.37 10.92 88.44 11.13C88.5 11.34 88.52 11.56 88.49 11.78L88.49 14.69L87.6 14.69L87.6 12C87.6 11.28 87.29 10.92 86.63 10.92C86.48 10.91 86.33 10.94 86.19 10.99C86.06 11.05 85.93 11.13 85.83 11.24C85.73 11.35 85.65 11.48 85.6 11.62C85.55 11.76 85.54 11.91 85.55 12.06L85.55 14.69L84.66 14.69L84.66 10.19Z" fill="#FFFFFF" fill-opacity="1.000000" fill-rule="nonzero"/>
		<path id="Vector" d="M93.51 9.07L93.51 10.21L94.49 10.21L94.49 10.96L93.51 10.96L93.51 13.28C93.51 13.75 93.7 13.95 94.15 13.95C94.26 13.95 94.37 13.95 94.49 13.93L94.49 14.67C94.33 14.7 94.16 14.72 94 14.72C93.01 14.72 92.62 14.37 92.62 13.5L92.62 10.96L91.91 10.96L91.91 10.21L92.62 10.21L92.62 9.07L93.51 9.07Z" fill="#FFFFFF" fill-opacity="1.000000" fill-rule="nonzero"/>
		<path id="Vector" d="M95.7 8.43L96.58 8.43L96.58 10.91L96.65 10.91C96.77 10.65 96.96 10.44 97.21 10.29C97.46 10.15 97.74 10.08 98.02 10.11C98.24 10.1 98.46 10.13 98.66 10.21C98.87 10.3 99.05 10.42 99.19 10.58C99.34 10.74 99.45 10.93 99.52 11.14C99.58 11.35 99.6 11.57 99.58 11.79L99.58 14.69L98.69 14.69L98.69 12C98.69 11.29 98.35 10.92 97.72 10.92C97.57 10.91 97.42 10.93 97.27 10.98C97.13 11.04 97 11.12 96.89 11.23C96.78 11.34 96.7 11.47 96.65 11.61C96.6 11.76 96.58 11.91 96.59 12.06L96.59 14.69L95.7 14.69L95.7 8.43Z" fill="#FFFFFF" fill-opacity="1.000000" fill-rule="nonzero"/>
		<path id="Vector" d="M104.76 13.48C104.64 13.89 104.37 14.24 104.02 14.48C103.66 14.72 103.23 14.83 102.81 14.78C102.51 14.79 102.21 14.73 101.94 14.61C101.67 14.5 101.43 14.32 101.23 14.1C101.03 13.88 100.88 13.62 100.8 13.33C100.71 13.05 100.68 12.75 100.73 12.46C100.69 12.16 100.71 11.86 100.8 11.58C100.88 11.29 101.03 11.03 101.23 10.8C101.42 10.58 101.67 10.4 101.94 10.28C102.21 10.16 102.5 10.1 102.8 10.1C104.06 10.1 104.81 10.96 104.81 12.37L104.81 12.68L101.63 12.68L101.63 12.73C101.62 12.9 101.64 13.06 101.69 13.22C101.75 13.38 101.83 13.52 101.94 13.64C102.06 13.76 102.19 13.86 102.35 13.93C102.5 13.99 102.66 14.02 102.83 14.02C103.04 14.05 103.26 14.01 103.45 13.91C103.64 13.82 103.8 13.66 103.9 13.48L104.76 13.48ZM101.63 12.03L103.91 12.03C103.92 11.87 103.9 11.72 103.85 11.58C103.79 11.44 103.71 11.31 103.61 11.2C103.51 11.09 103.38 11 103.24 10.94C103.1 10.88 102.95 10.86 102.8 10.86C102.64 10.86 102.49 10.89 102.35 10.94C102.21 11 102.08 11.09 101.97 11.2C101.86 11.3 101.77 11.43 101.72 11.58C101.66 11.72 101.63 11.87 101.63 12.03Z" fill="#FFFFFF" fill-opacity="1.000000" fill-rule="nonzero"/>
	</g>
</svg>
