<svg width="30.000000" height="30.000000" viewBox="0 0 30 30" fill="none" xmlns="http://www.w3.org/2000/svg" xmlns:xlink="http://www.w3.org/1999/xlink">
	<desc>
			Created with Pixso.
	</desc>
	<defs>
		<clipPath id="clip4_7319">
			<rect id="Link - Meetup on Facebook → SVG" rx="0.000000" width="29.000000" height="29.000000" transform="translate(0.500000 0.500000)" fill="white" fill-opacity="0"/>
		</clipPath>
	</defs>
	<g clip-path="url(#clip4_7319)">
		<path id="Vector" d="M27.5 15.07C27.5 8.13 21.9 2.5 15 2.5C8.09 2.5 2.5 8.13 2.5 15.07C2.5 21.35 7.07 26.55 13.04 27.5L13.04 18.71L9.87 18.71L9.87 15.07L13.04 15.07L13.04 12.3C13.04 9.15 14.91 7.41 17.76 7.41C19.13 7.41 20.56 7.65 20.56 7.65L20.56 10.75L18.99 10.75C17.43 10.75 16.95 11.72 16.95 12.71L16.95 15.07L20.41 15.07L19.86 18.71L16.95 18.71L16.95 27.5C22.92 26.55 27.5 21.35 27.5 15.07Z" fill="#D9D9D9" fill-opacity="1.000000" fill-rule="evenodd"/>
	</g>
</svg>
