<svg width="140.000000" height="40.000000" viewBox="0 0 140 40" fill="none" xmlns="http://www.w3.org/2000/svg" xmlns:xlink="http://www.w3.org/1999/xlink">
	<desc>
			Created with Pixso.
	</desc>
	<defs>
		<clipPath id="clip4_7332">
			<rect id="download_en-US.svg" rx="0.000000" width="134.000000" height="39.000000" transform="translate(3.000000 0.500000)" fill="white" fill-opacity="0"/>
		</clipPath>
		<clipPath id="clip4_7331">
			<rect id="download_en-US.svg fill" rx="0.000000" width="139.000000" height="39.000000" transform="translate(0.500000 0.500000)" fill="white" fill-opacity="0"/>
		</clipPath>
		<clipPath id="clip4_7330">
			<rect id="Link - Download app from Google Play → download_en-US.svg" rx="0.000000" width="139.000000" height="39.000000" transform="translate(0.500000 0.500000)" fill="white" fill-opacity="0"/>
		</clipPath>
		<linearGradient x1="24.300148" y1="8.710707" x2="7.520143" y2="25.490709" id="paint_linear_4_7337_0" gradientUnits="userSpaceOnUse">
			<stop stop-color="#00A0FF"/>
			<stop offset="0.010000" stop-color="#00A1FF"/>
			<stop offset="0.260000" stop-color="#00BEFF"/>
			<stop offset="0.510000" stop-color="#00D2FF"/>
			<stop offset="0.760000" stop-color="#00DFFF"/>
			<stop offset="1.000000" stop-color="#00E3FF"/>
		</linearGradient>
		<linearGradient x1="36.330391" y1="20.000704" x2="12.140390" y2="20.000704" id="paint_linear_4_7338_0" gradientUnits="userSpaceOnUse">
			<stop stop-color="#FFE000"/>
			<stop offset="0.410000" stop-color="#FFBD00"/>
			<stop offset="0.780000" stop-color="#FFA500"/>
			<stop offset="1.000000" stop-color="#FF9C00"/>
		</linearGradient>
		<linearGradient x1="27.329451" y1="22.300001" x2="4.569450" y2="45.050003" id="paint_linear_4_7339_0" gradientUnits="userSpaceOnUse">
			<stop stop-color="#FF3A44"/>
			<stop offset="1.000000" stop-color="#C31162"/>
		</linearGradient>
		<linearGradient x1="9.799677" y1="0.180534" x2="19.959686" y2="10.340534" id="paint_linear_4_7340_0" gradientUnits="userSpaceOnUse">
			<stop stop-color="#32A071"/>
			<stop offset="0.070000" stop-color="#2DA771"/>
			<stop offset="0.480000" stop-color="#15CF74"/>
			<stop offset="0.800000" stop-color="#06E775"/>
			<stop offset="1.000000" stop-color="#00F076"/>
		</linearGradient>
	</defs>
	<g clip-path="url(#clip4_7330)">
		<g clip-path="url(#clip4_7331)">
			<g clip-path="url(#clip4_7332)">
				<path id="Vector" d="M132.5 0L7.5 0C4.73 0 2.5 2.23 2.5 5L2.5 35C2.5 37.76 4.73 40 7.5 40L132.5 40C135.26 40 137.5 37.76 137.5 35L137.5 5C137.5 2.23 135.26 0 132.5 0Z" fill="#000000" fill-opacity="1.000000" fill-rule="nonzero"/>
				<path id="Vector" d="M132.5 0.79C133.61 0.79 134.68 1.24 135.47 2.03C136.25 2.81 136.7 3.88 136.7 5L136.7 35C136.7 36.11 136.25 37.18 135.47 37.96C134.68 38.75 133.61 39.2 132.5 39.2L7.5 39.2C6.38 39.2 5.31 38.75 4.53 37.96C3.74 37.18 3.29 36.11 3.29 35L3.29 5C3.29 3.88 3.74 2.81 4.53 2.03C5.31 1.24 6.38 0.79 7.5 0.79L132.5 0.79ZM132.5 0L7.5 0C6.17 0 4.9 0.52 3.96 1.46C3.02 2.4 2.5 3.67 2.5 5L2.5 35C2.5 36.32 3.02 37.59 3.96 38.53C4.9 39.47 6.17 40 7.5 40L132.5 40C133.82 40 135.09 39.47 136.03 38.53C136.97 37.59 137.5 36.32 137.5 35L137.5 5C137.5 3.67 136.97 2.4 136.03 1.46C135.09 0.52 133.82 0 132.5 0Z" fill="#A6A6A6" fill-opacity="1.000000" fill-rule="nonzero"/>
				<path id="Vector" d="M49.91 10.23C49.93 10.6 49.87 10.97 49.75 11.31C49.62 11.66 49.42 11.97 49.16 12.23C48.88 12.53 48.54 12.76 48.16 12.91C47.78 13.07 47.37 13.14 46.96 13.12C46.34 13.12 45.74 12.93 45.23 12.58C44.71 12.24 44.31 11.75 44.08 11.17C43.84 10.6 43.78 9.97 43.9 9.36C44.02 8.75 44.32 8.19 44.75 7.75C45.04 7.46 45.39 7.23 45.77 7.08C46.15 6.92 46.55 6.85 46.96 6.85C47.39 6.85 47.81 6.94 48.2 7.1C48.56 7.25 48.88 7.48 49.13 7.77L48.61 8.3C48.41 8.07 48.15 7.88 47.87 7.76C47.58 7.63 47.27 7.58 46.96 7.59C46.65 7.59 46.34 7.65 46.06 7.78C45.77 7.9 45.51 8.07 45.29 8.3C45.07 8.52 44.9 8.79 44.79 9.08C44.68 9.37 44.62 9.68 44.63 9.99C44.63 10.46 44.76 10.92 45.01 11.31C45.27 11.7 45.63 12.01 46.06 12.19C46.49 12.38 46.96 12.43 47.42 12.35C47.88 12.27 48.3 12.05 48.63 11.72C48.94 11.39 49.12 10.96 49.13 10.5L46.96 10.5L46.96 9.78L49.87 9.78C49.9 9.93 49.91 10.08 49.91 10.23ZM54.5 7.73L51.79 7.73L51.79 9.63L54.25 9.63L54.25 10.35L51.79 10.35L51.79 12.25L54.5 12.25L54.5 12.99L51 12.99L51 6.99L54.5 6.99L54.5 7.73ZM57.78 12.99L57 12.99L57 7.73L55.33 7.73L55.33 6.99L59.5 6.99L59.5 7.73L57.78 7.73L57.78 12.99ZM62.44 12.99L62.44 6.99L63.21 6.99L63.21 12.99L62.44 12.99ZM66.62 12.99L65.86 12.99L65.86 7.73L64.17 7.73L64.17 6.99L68.29 6.99L68.29 7.73L66.62 7.73L66.62 12.99ZM76.11 12.21C75.52 12.8 74.73 13.12 73.91 13.12C73.08 13.12 72.29 12.8 71.71 12.21C71.14 11.61 70.82 10.82 70.82 9.99C70.82 9.16 71.14 8.37 71.71 7.76C71.99 7.47 72.34 7.24 72.71 7.09C73.09 6.93 73.5 6.85 73.91 6.85C74.31 6.85 74.72 6.93 75.1 7.09C75.47 7.24 75.82 7.47 76.11 7.76C76.68 8.37 76.99 9.16 76.99 9.99C76.99 10.82 76.68 11.61 76.11 12.21ZM72.28 11.71C72.71 12.15 73.29 12.39 73.91 12.39C74.52 12.39 75.1 12.15 75.54 11.71C75.96 11.24 76.2 10.63 76.2 9.99C76.2 9.36 75.96 8.75 75.54 8.27C75.1 7.84 74.52 7.6 73.91 7.6C73.29 7.6 72.71 7.84 72.28 8.27C71.85 8.75 71.61 9.36 71.61 9.99C71.61 10.63 71.85 11.24 72.28 11.71ZM78.08 12.99L78.08 6.99L79.02 6.99L81.94 11.66L81.94 6.99L82.71 6.99L82.71 12.99L81.91 12.99L78.86 8.1L78.86 12.99L78.08 12.99Z" fill="#FFFFFF" fill-opacity="1.000000" fill-rule="nonzero"/>
				<path id="Vector" d="M49.75 11.31C49.62 11.66 49.42 11.97 49.16 12.23C48.88 12.53 48.54 12.76 48.16 12.91C47.78 13.07 47.37 13.14 46.96 13.12C46.34 13.12 45.74 12.93 45.23 12.58C44.71 12.24 44.31 11.75 44.08 11.17C43.84 10.6 43.78 9.97 43.9 9.36C44.02 8.75 44.32 8.19 44.75 7.75C45.04 7.46 45.39 7.23 45.77 7.08C46.15 6.92 46.55 6.85 46.96 6.85C47.39 6.85 47.81 6.94 48.2 7.1C48.56 7.25 48.88 7.48 49.13 7.77L48.61 8.3C48.41 8.07 48.15 7.88 47.87 7.76C47.58 7.63 47.27 7.58 46.96 7.59C46.65 7.59 46.34 7.65 46.06 7.78C45.77 7.9 45.51 8.07 45.29 8.3C45.07 8.52 44.9 8.79 44.79 9.08C44.68 9.37 44.62 9.68 44.63 9.99C44.63 10.46 44.76 10.92 45.01 11.31C45.27 11.7 45.63 12.01 46.06 12.19C46.49 12.38 46.96 12.43 47.42 12.35C47.88 12.27 48.3 12.05 48.63 11.72C48.94 11.39 49.12 10.96 49.13 10.5L46.96 10.5L46.96 9.78L49.87 9.78C49.9 9.93 49.91 10.08 49.91 10.23C49.93 10.6 49.87 10.97 49.75 11.31ZM51.79 7.73L51.79 9.63L54.25 9.63L54.25 10.35L51.79 10.35L51.79 12.25L54.5 12.25L54.5 12.99L51 12.99L51 6.99L54.5 6.99L54.5 7.73L51.79 7.73ZM57 12.99L57 7.73L55.33 7.73L55.33 6.99L59.5 6.99L59.5 7.73L57.78 7.73L57.78 12.99L57 12.99ZM62.44 6.99L63.21 6.99L63.21 12.99L62.44 12.99L62.44 6.99ZM65.86 12.99L65.86 7.73L64.17 7.73L64.17 6.99L68.29 6.99L68.29 7.73L66.62 7.73L66.62 12.99L65.86 12.99ZM73.91 13.12C73.08 13.12 72.29 12.8 71.71 12.21C71.14 11.61 70.82 10.82 70.82 9.99C70.82 9.16 71.14 8.37 71.71 7.76C71.99 7.47 72.34 7.24 72.71 7.09C73.09 6.93 73.5 6.85 73.91 6.85C74.31 6.85 74.72 6.93 75.1 7.09C75.47 7.24 75.82 7.47 76.11 7.76C76.68 8.37 76.99 9.16 76.99 9.99C76.99 10.82 76.68 11.61 76.11 12.21C75.52 12.8 74.73 13.12 73.91 13.12ZM73.91 12.39C74.52 12.39 75.1 12.15 75.54 11.71C75.96 11.24 76.2 10.63 76.2 9.99C76.2 9.36 75.96 8.75 75.54 8.27C75.1 7.84 74.52 7.6 73.91 7.6C73.29 7.6 72.71 7.84 72.28 8.27C71.85 8.75 71.61 9.36 71.61 9.99C71.61 10.63 71.85 11.24 72.28 11.71C72.71 12.15 73.29 12.39 73.91 12.39ZM78.08 6.99L79.02 6.99L81.94 11.66L81.94 6.99L82.71 6.99L82.71 12.99L81.91 12.99L78.86 8.1L78.86 12.99L78.08 12.99L78.08 6.99Z" stroke="#FFFFFF" stroke-opacity="1.000000" stroke-width="0.200000"/>
				<path id="Vector" d="M70.63 21.75C69.8 21.75 68.98 22 68.28 22.47C67.58 22.94 67.04 23.61 66.72 24.38C66.4 25.16 66.32 26.01 66.49 26.84C66.66 27.66 67.06 28.41 67.66 29.01C68.25 29.6 69.01 30 69.83 30.16C70.66 30.33 71.51 30.24 72.29 29.92C73.06 29.6 73.72 29.05 74.19 28.35C74.66 27.66 74.91 26.83 74.91 26C74.91 25.43 74.81 24.87 74.6 24.35C74.38 23.83 74.07 23.36 73.67 22.96C73.27 22.57 72.8 22.26 72.28 22.05C71.76 21.84 71.2 21.73 70.63 21.75ZM70.63 28.58C70.12 28.61 69.6 28.49 69.16 28.23C68.71 27.97 68.35 27.58 68.13 27.11C67.9 26.65 67.83 26.12 67.91 25.61C67.98 25.1 68.21 24.62 68.57 24.24C68.92 23.87 69.38 23.6 69.88 23.49C70.39 23.37 70.91 23.41 71.4 23.6C71.88 23.79 72.29 24.12 72.58 24.54C72.88 24.97 73.03 25.48 73.04 26C73.05 26.32 73 26.65 72.89 26.96C72.78 27.27 72.6 27.55 72.38 27.79C72.16 28.03 71.89 28.23 71.59 28.36C71.29 28.49 70.96 28.57 70.63 28.58ZM61.33 21.75C60.49 21.75 59.66 22 58.97 22.47C58.27 22.93 57.73 23.6 57.41 24.38C57.09 25.15 57 26.01 57.17 26.83C57.33 27.65 57.74 28.41 58.33 29C58.93 29.6 59.69 30 60.51 30.16C61.33 30.33 62.19 30.24 62.96 29.92C63.74 29.6 64.4 29.05 64.87 28.36C65.34 27.66 65.58 26.83 65.58 26C65.59 25.43 65.49 24.87 65.28 24.35C65.06 23.83 64.75 23.36 64.35 22.96C63.95 22.57 63.48 22.26 62.96 22.05C62.44 21.84 61.88 21.73 61.32 21.75L61.33 21.75ZM61.33 28.58C60.81 28.61 60.29 28.5 59.84 28.24C59.4 27.98 59.04 27.59 58.81 27.12C58.59 26.65 58.51 26.13 58.58 25.62C58.66 25.11 58.89 24.63 59.24 24.25C59.59 23.87 60.05 23.6 60.56 23.49C61.06 23.37 61.59 23.41 62.07 23.6C62.56 23.79 62.97 24.12 63.26 24.54C63.56 24.97 63.71 25.48 63.71 26C63.73 26.32 63.68 26.65 63.57 26.96C63.46 27.27 63.28 27.55 63.06 27.79C62.84 28.03 62.57 28.23 62.27 28.36C61.97 28.49 61.64 28.57 61.32 28.58L61.33 28.58ZM50.24 23.06L50.24 24.86L54.55 24.86C54.49 25.7 54.13 26.5 53.55 27.12C53.12 27.57 52.6 27.91 52.03 28.14C51.46 28.37 50.84 28.47 50.23 28.45C48.95 28.45 47.73 27.94 46.83 27.04C45.93 26.14 45.42 24.92 45.42 23.65C45.42 22.37 45.93 21.15 46.83 20.25C47.73 19.35 48.95 18.85 50.23 18.85C51.44 18.83 52.62 19.29 53.5 20.13L54.77 18.87C54.17 18.27 53.47 17.79 52.69 17.47C51.91 17.15 51.08 16.99 50.24 17C49.35 16.96 48.46 17.11 47.63 17.42C46.8 17.74 46.04 18.22 45.4 18.84C44.75 19.45 44.24 20.19 43.9 21.01C43.55 21.83 43.37 22.71 43.37 23.6C43.37 24.49 43.55 25.37 43.9 26.19C44.24 27.01 44.75 27.75 45.4 28.36C46.04 28.98 46.8 29.46 47.63 29.78C48.46 30.09 49.35 30.24 50.24 30.21C51.09 30.24 51.95 30.1 52.74 29.78C53.54 29.46 54.25 28.97 54.84 28.36C55.89 27.2 56.45 25.69 56.41 24.13C56.41 23.76 56.37 23.38 56.3 23L50.24 23.06ZM95.54 24.46C95.28 23.69 94.8 23.02 94.15 22.53C93.5 22.05 92.71 21.78 91.91 21.75C91.36 21.74 90.82 21.86 90.31 22.07C89.81 22.29 89.36 22.61 88.98 23C88.61 23.4 88.32 23.87 88.13 24.39C87.95 24.9 87.87 25.45 87.91 26C87.89 26.55 87.99 27.11 88.2 27.63C88.41 28.15 88.72 28.62 89.11 29.02C89.51 29.41 89.98 29.73 90.49 29.94C91.01 30.15 91.57 30.25 92.12 30.25C92.82 30.25 93.51 30.08 94.13 29.75C94.75 29.42 95.28 28.95 95.66 28.37L94.21 27.37C94 27.73 93.69 28.02 93.33 28.23C92.96 28.44 92.55 28.55 92.12 28.54C91.69 28.56 91.26 28.45 90.9 28.22C90.53 27.99 90.24 27.65 90.07 27.25L95.75 24.91L95.54 24.46ZM89.75 25.87C89.72 25.57 89.77 25.26 89.87 24.96C89.97 24.67 90.13 24.4 90.33 24.17C90.54 23.94 90.79 23.75 91.07 23.62C91.35 23.48 91.66 23.41 91.96 23.4C92.29 23.37 92.61 23.45 92.89 23.61C93.17 23.77 93.4 24.01 93.54 24.29L89.75 25.87ZM85.12 30L87 30L87 17.5L85.12 17.5L85.12 30ZM82.07 22.7L82 22.7C81.71 22.38 81.37 22.13 80.98 21.96C80.6 21.78 80.18 21.69 79.75 21.7C78.66 21.75 77.63 22.22 76.88 23.01C76.12 23.8 75.7 24.86 75.7 25.95C75.7 27.04 76.12 28.1 76.88 28.89C77.63 29.68 78.66 30.15 79.75 30.21C80.18 30.21 80.6 30.13 80.99 29.95C81.37 29.78 81.72 29.53 82 29.21L82.05 29.21L82.05 29.82C82.05 31.45 81.19 32.32 79.79 32.32C79.32 32.3 78.87 32.16 78.49 31.89C78.1 31.62 77.81 31.24 77.65 30.81L76.02 31.49C76.32 32.23 76.84 32.87 77.52 33.32C78.19 33.76 78.98 34 79.79 34C81.98 34 83.79 32.71 83.79 29.57L83.79 22L82.07 22L82.07 22.7ZM79.92 28.58C79.28 28.52 78.68 28.22 78.24 27.74C77.8 27.27 77.56 26.64 77.56 26C77.56 25.35 77.8 24.72 78.24 24.25C78.68 23.77 79.28 23.47 79.92 23.41C80.25 23.43 80.56 23.51 80.85 23.65C81.13 23.79 81.39 23.99 81.6 24.23C81.82 24.47 81.98 24.75 82.08 25.05C82.18 25.35 82.22 25.68 82.2 26C82.22 26.32 82.18 26.64 82.08 26.94C81.98 27.25 81.82 27.53 81.61 27.77C81.39 28.01 81.13 28.21 80.84 28.35C80.55 28.49 80.24 28.56 79.91 28.58L79.92 28.58ZM104.31 17.5L99.83 17.5L99.83 30L101.71 30L101.71 25.25L104.32 25.25C104.85 25.29 105.38 25.22 105.89 25.04C106.39 24.87 106.85 24.59 107.24 24.22C107.64 23.86 107.95 23.42 108.16 22.93C108.37 22.44 108.48 21.91 108.48 21.37C108.48 20.84 108.37 20.31 108.16 19.82C107.95 19.33 107.64 18.89 107.24 18.53C106.85 18.16 106.39 17.88 105.89 17.71C105.38 17.53 104.85 17.46 104.32 17.5L104.31 17.5ZM104.31 23.5L101.7 23.5L101.7 19.24L104.35 19.24C104.91 19.24 105.46 19.46 105.86 19.86C106.27 20.27 106.49 20.81 106.49 21.38C106.49 21.95 106.27 22.5 105.86 22.9C105.46 23.3 104.91 23.53 104.35 23.53L104.31 23.5ZM115.84 21.7C115.15 21.65 114.48 21.81 113.89 22.15C113.29 22.49 112.81 23 112.51 23.61L114.17 24.29C114.33 23.99 114.58 23.75 114.88 23.58C115.18 23.42 115.52 23.35 115.87 23.37C116.1 23.35 116.34 23.37 116.57 23.43C116.8 23.5 117.02 23.61 117.2 23.76C117.39 23.91 117.54 24.1 117.66 24.31C117.77 24.52 117.84 24.75 117.87 24.99L117.87 25.12C117.27 24.8 116.6 24.63 115.92 24.63C114.13 24.63 112.32 25.63 112.32 27.45C112.33 27.83 112.43 28.21 112.59 28.56C112.76 28.91 113 29.22 113.28 29.47C113.57 29.73 113.91 29.93 114.28 30.05C114.64 30.17 115.03 30.22 115.42 30.2C115.89 30.23 116.36 30.14 116.78 29.92C117.2 29.71 117.56 29.39 117.82 29L117.88 29L117.88 30L119.68 30L119.68 25.19C119.68 23 118.02 21.73 115.89 21.73L115.84 21.7ZM115.61 28.54C115 28.54 114.15 28.24 114.15 27.49C114.15 26.49 115.21 26.16 116.15 26.16C116.74 26.14 117.33 26.29 117.85 26.58C117.78 27.12 117.53 27.62 117.12 27.98C116.72 28.35 116.2 28.56 115.66 28.58L115.61 28.54ZM126.24 22L124.1 27.41L124.04 27.41L121.82 22L119.82 22L123.15 29.58L121.25 33.79L123.2 33.79L128.32 22L126.24 22ZM109.43 30L111.3 30L111.3 17.5L109.43 17.5L109.43 30Z" fill="#FFFFFF" fill-opacity="1.000000" fill-rule="nonzero"/>
				<path id="Vector" d="M12.94 7.54C12.61 7.93 12.44 8.43 12.48 8.94L12.48 31.06C12.44 31.56 12.61 32.06 12.94 32.46L13 32.53L25.4 20.15L25.4 19.86L13 7.47L12.94 7.54Z" fill="url(#paint_linear_4_7337_0)" fill-opacity="1.000000" fill-rule="nonzero"/>
				<path id="Vector" d="M29.5 24.28L25.4 20.15L25.4 19.86L29.5 15.72L29.59 15.77L34.5 18.56C35.9 19.35 35.9 20.65 34.5 21.45L29.61 24.23L29.5 24.28Z" fill="url(#paint_linear_4_7338_0)" fill-opacity="1.000000" fill-rule="nonzero"/>
				<path id="Vector" d="M29.61 24.21L25.39 20L12.93 32.46C13.22 32.71 13.58 32.85 13.96 32.86C14.34 32.87 14.71 32.75 15.01 32.51L29.62 24.21L29.61 24.21Z" fill="url(#paint_linear_4_7339_0)" fill-opacity="1.000000" fill-rule="nonzero"/>
				<path id="Vector" d="M29.62 15.78L15 7.48C14.71 7.24 14.33 7.12 13.95 7.13C13.57 7.14 13.21 7.29 12.92 7.54L25.39 20L29.62 15.78Z" fill="url(#paint_linear_4_7340_0)" fill-opacity="1.000000" fill-rule="nonzero"/>
				<g opacity="0.200000">
					<path id="Vector" d="M29.49 24.12L15 32.37C14.72 32.59 14.37 32.71 14 32.71C13.64 32.71 13.29 32.59 13 32.37L12.93 32.45L13 32.51C13.29 32.73 13.64 32.85 14 32.85C14.37 32.85 14.72 32.73 15 32.51L29.61 24.21L29.49 24.12Z" fill="#000000" fill-opacity="1.000000" fill-rule="nonzero"/>
				</g>
				<g opacity="0.120000">
					<path id="Vector" d="M12.94 32.32C12.61 31.92 12.44 31.42 12.48 30.91L12.48 31.07C12.44 31.57 12.61 32.07 12.94 32.46L13 32.4L12.94 32.32ZM34.5 21.29L29.5 24.12L29.58 24.21L34.5 21.44C34.77 21.3 35.01 21.1 35.19 20.85C35.36 20.6 35.47 20.3 35.5 20C35.44 20.27 35.32 20.54 35.15 20.76C34.97 20.99 34.75 21.17 34.5 21.29Z" fill="#000000" fill-opacity="1.000000" fill-rule="nonzero"/>
				</g>
				<g opacity="0.250000">
					<path id="Vector" d="M15 7.62L34.5 18.7C34.75 18.82 34.97 19 35.15 19.23C35.32 19.45 35.44 19.72 35.5 20C35.47 19.69 35.36 19.39 35.19 19.14C35.01 18.89 34.77 18.69 34.5 18.56L15 7.48C13.6 6.69 12.46 7.35 12.46 8.95L12.46 9.1C12.5 7.49 13.62 6.83 15 7.62Z" fill="#FFFFFF" fill-opacity="1.000000" fill-rule="nonzero"/>
				</g>
			</g>
		</g>
	</g>
</svg>
