<svg width="30.000000" height="30.000000" viewBox="0 0 30 30" fill="none" xmlns="http://www.w3.org/2000/svg" xmlns:xlink="http://www.w3.org/1999/xlink">
	<desc>
			Created with Pixso.
	</desc>
	<defs>
		<clipPath id="clip4_7325">
			<rect id="Link - Instagram → SVG" rx="0.000000" width="29.000000" height="29.000000" transform="translate(0.500000 0.500000)" fill="white" fill-opacity="0"/>
		</clipPath>
	</defs>
	<g clip-path="url(#clip4_7325)">
		<path id="Vector" d="M24.15 19.54C24.1 20.64 23.92 21.23 23.77 21.63C23.56 22.15 23.32 22.53 22.92 22.92C22.53 23.32 22.15 23.56 21.63 23.76C21.23 23.92 20.63 24.1 19.54 24.15C18.35 24.21 18 24.22 14.99 24.22C11.99 24.22 11.63 24.21 10.45 24.15C9.35 24.1 8.76 23.92 8.36 23.76C7.83 23.56 7.46 23.32 7.07 22.92C6.67 22.53 6.43 22.15 6.22 21.63C6.07 21.23 5.89 20.64 5.84 19.54C5.78 18.35 5.77 18 5.77 15C5.77 11.99 5.78 11.63 5.84 10.45C5.89 9.35 6.07 8.76 6.22 8.36C6.43 7.83 6.67 7.46 7.07 7.07C7.46 6.67 7.83 6.43 8.36 6.22C8.76 6.07 9.35 5.89 10.45 5.84C11.63 5.78 11.99 5.77 14.99 5.77C18 5.77 18.35 5.78 19.54 5.84C20.63 5.89 21.23 6.07 21.63 6.22C22.15 6.43 22.53 6.67 22.92 7.07C23.32 7.46 23.56 7.83 23.77 8.36C23.92 8.76 24.1 9.35 24.15 10.45C24.21 11.63 24.22 11.99 24.22 15C24.22 18 24.21 18.35 24.15 19.54ZM26.18 10.36C26.12 9.16 25.93 8.34 25.65 7.63C25.37 6.89 24.98 6.26 24.36 5.63C23.73 5.01 23.1 4.62 22.36 4.33C21.65 4.06 20.83 3.87 19.63 3.81C18.43 3.76 18.05 3.75 14.99 3.75C11.94 3.75 11.55 3.76 10.35 3.81C9.16 3.87 8.34 4.06 7.62 4.33C6.89 4.62 6.26 5.01 5.63 5.63C5.01 6.26 4.62 6.89 4.34 7.63C4.06 8.34 3.87 9.16 3.81 10.36C3.76 11.56 3.75 11.94 3.75 15C3.75 18.05 3.76 18.43 3.81 19.63C3.87 20.83 4.06 21.65 4.34 22.36C4.62 23.1 5.01 23.73 5.63 24.36C6.26 24.98 6.89 25.37 7.62 25.65C8.34 25.93 9.16 26.12 10.35 26.18C11.55 26.23 11.94 26.25 14.99 26.25C18.05 26.25 18.43 26.23 19.63 26.18C20.83 26.12 21.65 25.93 22.36 25.65C23.1 25.37 23.73 24.98 24.36 24.36C24.98 23.73 25.37 23.1 25.65 22.36C25.93 21.65 26.12 20.83 26.18 19.63C26.23 18.43 26.25 18.05 26.25 15C26.25 11.94 26.23 11.56 26.18 10.36ZM22.35 8.99C22.35 8.24 21.75 7.64 21 7.64C20.25 7.64 19.65 8.24 19.65 8.99C19.65 9.74 20.25 10.34 21 10.34C21.75 10.34 22.35 9.74 22.35 8.99ZM11.24 15C11.24 17.07 12.92 18.74 14.99 18.74C17.06 18.74 18.75 17.07 18.75 15C18.75 12.92 17.06 11.24 14.99 11.24C12.92 11.24 11.24 12.92 11.24 15ZM9.22 15C9.22 11.81 11.8 9.22 14.99 9.22C18.18 9.22 20.77 11.81 20.77 15C20.77 18.18 18.18 20.77 14.99 20.77C11.8 20.77 9.22 18.18 9.22 15Z" fill="#D9D9D9" fill-opacity="1.000000" fill-rule="evenodd"/>
	</g>
</svg>
