<svg width="30.000000" height="30.000000" viewBox="0 0 30 30" fill="none" xmlns="http://www.w3.org/2000/svg" xmlns:xlink="http://www.w3.org/1999/xlink">
	<desc>
			Created with Pixso.
	</desc>
	<defs>
		<clipPath id="clip4_7327">
			<rect id="Link - TikTok → SVG" rx="0.000000" width="29.000000" height="29.000000" transform="translate(0.500000 0.500000)" fill="white" fill-opacity="0"/>
		</clipPath>
	</defs>
	<g clip-path="url(#clip4_7327)">
		<path id="Vector" d="M19.96 10.13C19.09 9.56 18.46 8.64 18.26 7.58C18.22 7.35 18.19 7.11 18.19 6.87L15.4 6.87L15.39 18.07C15.35 19.32 14.31 20.33 13.05 20.33C12.66 20.33 12.29 20.23 11.96 20.06C11.21 19.67 10.7 18.88 10.7 17.98C10.7 16.69 11.75 15.63 13.05 15.63C13.29 15.63 13.53 15.67 13.74 15.74L13.74 13.55L13.74 12.89C13.51 12.86 13.28 12.84 13.05 12.84C10.22 12.84 7.91 15.14 7.91 17.98C7.91 19.72 8.78 21.26 10.1 22.19C10.94 22.78 11.96 23.12 13.05 23.12C15.89 23.12 18.19 20.81 18.19 17.98L18.19 12.3C19.29 13.09 20.63 13.55 22.08 13.55L22.08 11.38L22.08 10.76C21.3 10.76 20.57 10.53 19.96 10.13Z" fill="#D9D9D9" fill-opacity="1.000000" fill-rule="nonzero"/>
	</g>
</svg>
