<svg width="30.000000" height="30.000000" viewBox="0 0 30 30" fill="none" xmlns="http://www.w3.org/2000/svg" xmlns:xlink="http://www.w3.org/1999/xlink">
	<desc>
			Created with Pixso.
	</desc>
	<defs>
		<clipPath id="clip4_7321">
			<rect id="Link - Meetup on Twitter → SVG" rx="0.000000" width="29.000000" height="29.000000" transform="translate(0.500000 0.500000)" fill="white" fill-opacity="0"/>
		</clipPath>
	</defs>
	<g clip-path="url(#clip4_7321)">
		<path id="Vector" d="M27.5 7.4C26.58 7.81 25.59 8.08 24.55 8.21C25.61 7.57 26.42 6.57 26.8 5.37C25.81 5.96 24.72 6.38 23.55 6.62C22.61 5.62 21.28 5 19.8 5C16.97 5 14.67 7.29 14.67 10.12C14.67 10.53 14.72 10.92 14.81 11.29C10.54 11.08 6.77 9.04 4.24 5.93C3.79 6.69 3.54 7.57 3.54 8.51C3.54 10.29 4.45 11.86 5.82 12.78C4.98 12.75 4.19 12.52 3.5 12.14C3.5 12.16 3.5 12.18 3.5 12.21C3.5 14.69 5.27 16.76 7.61 17.23C7.18 17.35 6.73 17.41 6.26 17.41C5.93 17.41 5.61 17.38 5.3 17.32C5.95 19.36 7.84 20.84 10.09 20.88C8.33 22.26 6.12 23.08 3.72 23.08C3.3 23.08 2.9 23.05 2.5 23.01C4.76 24.46 7.46 25.31 10.36 25.31C19.79 25.31 24.95 17.5 24.95 10.72C24.95 10.5 24.95 10.28 24.94 10.06C25.94 9.33 26.81 8.43 27.5 7.4Z" fill="#D9D9D9" fill-opacity="1.000000" fill-rule="nonzero"/>
	</g>
</svg>
