<svg width="41.000000" height="41.000000" viewBox="0 0 41 41" fill="none" xmlns="http://www.w3.org/2000/svg" xmlns:xlink="http://www.w3.org/1999/xlink">
	<desc>
			Created with Pixso.
	</desc>
	<defs>
		<clipPath id="clip2_2414">
			<rect id="search.svg" rx="0.000000" width="40.023811" height="40.023811" transform="translate(0.488095 0.488095)" fill="white" fill-opacity="0"/>
		</clipPath>
		<clipPath id="clip2_2413">
			<rect id="search.svg fill" rx="0.000000" width="40.000000" height="40.000000" transform="translate(0.500000 0.500000)" fill="white" fill-opacity="0"/>
		</clipPath>
		<clipPath id="clip2_2412">
			<rect id="search.svg" rx="0.000000" width="40.000000" height="40.000000" transform="translate(0.500000 0.500000)" fill="white" fill-opacity="0"/>
		</clipPath>
	</defs>
	<g clip-path="url(#clip2_2412)">
		<g clip-path="url(#clip2_2413)">
			<g clip-path="url(#clip2_2414)">
				<path id="Vector" d="M16.26 0.65C24.89 0.65 31.88 7.64 31.88 16.26C31.88 19.64 30.81 22.76 29 25.31L40.77 37.09L37.09 40.77L25.31 29C22.76 30.81 19.64 31.88 16.26 31.88C7.64 31.88 0.65 24.89 0.65 16.26C0.65 7.64 7.64 0.65 16.26 0.65ZM16.26 5.85C10.51 5.85 5.85 10.51 5.85 16.26C5.85 22.02 10.51 26.68 16.26 26.68C22.02 26.68 26.68 22.02 26.68 16.26C26.68 10.51 22.02 5.85 16.26 5.85Z" fill="#008294" fill-opacity="1.000000" fill-rule="nonzero"/>
			</g>
		</g>
	</g>
</svg>
