<svg width="14.000000" height="14.000000" viewBox="0 0 14 14" fill="none" xmlns="http://www.w3.org/2000/svg" xmlns:xlink="http://www.w3.org/1999/xlink">
	<desc>
			Created with Pixso.
	</desc>
	<defs>
		<clipPath id="clip2_5981">
			<rect id="SVG" rx="0.000000" width="13.000000" height="13.000000" transform="translate(0.500000 0.500000)" fill="white" fill-opacity="0"/>
		</clipPath>
	</defs>
	<g clip-path="url(#clip2_5981)">
		<path id="Vector" d="M1.44 4.35C1.61 4.18 1.88 4.18 2.05 4.35L6.89 9.19C6.95 9.25 7.04 9.25 7.1 9.19L11.94 4.35C12.11 4.18 12.38 4.18 12.55 4.35C12.73 4.52 12.73 4.8 12.55 4.97L7.72 9.81C7.32 10.21 6.67 10.21 6.27 9.81L1.44 4.97C1.26 4.8 1.26 4.52 1.44 4.35Z" fill="#212121" fill-opacity="1.000000" fill-rule="evenodd"/>
		<path id="Vector" d="M2.05 4.35L6.89 9.19C6.95 9.25 7.04 9.25 7.1 9.19L11.94 4.35C12.11 4.18 12.38 4.18 12.55 4.35C12.73 4.52 12.73 4.8 12.55 4.97L7.72 9.81C7.32 10.21 6.67 10.21 6.27 9.81L1.44 4.97C1.26 4.8 1.26 4.52 1.44 4.35C1.61 4.18 1.88 4.18 2.05 4.35Z" stroke="#212121" stroke-opacity="1.000000" stroke-width="1.166667"/>
	</g>
</svg>
