<svg width="22.000000" height="22.000000" viewBox="0 0 22 22" fill="none" xmlns="http://www.w3.org/2000/svg" xmlns:xlink="http://www.w3.org/1999/xlink">
	<desc>
			Created with Pixso.
	</desc>
	<defs>
		<clipPath id="clip2_2054">
			<rect id="Link → SVG" rx="0.000000" width="21.000000" height="21.000000" transform="translate(0.500000 0.500000)" fill="white" fill-opacity="0"/>
		</clipPath>
	</defs>
	<g clip-path="url(#clip2_2054)">
		<path id="Vector" d="M13.5 3.12C14.21 2.41 15.37 2.41 16.09 3.12L17.38 4.42C18.1 5.14 18.1 6.3 17.38 7.01L16.09 8.31L12.2 4.42L13.5 3.12ZM11.55 5.07L15.44 8.96L7.93 16.47C7.76 16.64 7.53 16.74 7.28 16.74L4.23 16.74C3.98 16.74 3.77 16.53 3.77 16.28L3.77 13.23C3.77 12.98 3.87 12.75 4.04 12.58L11.55 5.07ZM4.35 17.87C3.97 17.87 3.66 18.18 3.66 18.56C3.66 18.94 3.97 19.25 4.35 19.25L17.64 19.25C18.02 19.25 18.33 18.94 18.33 18.56C18.33 18.18 18.02 17.87 17.64 17.87L4.35 17.87Z" fill="#00798A" fill-opacity="1.000000" fill-rule="evenodd"/>
	</g>
</svg>
