<svg width="16.000000" height="16.000000" viewBox="0 0 16 16" fill="none" xmlns="http://www.w3.org/2000/svg" xmlns:xlink="http://www.w3.org/1999/xlink">
	<desc>
			Created with Pixso.
	</desc>
	<defs>
		<clipPath id="clip49_28">
			<rect id="SVG" rx="0.000000" width="15.000000" height="15.000000" transform="translate(0.500000 0.500000)" fill="white" fill-opacity="0"/>
		</clipPath>
	</defs>
	<g clip-path="url(#clip49_28)">
		<path id="Vector" d="M2.66 2.66C1.92 2.66 1.33 3.26 1.33 4L1.33 12C1.33 12.73 1.92 13.33 2.66 13.33L9.33 13.33C10.06 13.33 10.66 12.73 10.66 12L10.66 10.12C10.66 10.07 10.72 10.04 10.76 10.06L13.62 11.97C14.07 12.27 14.66 11.95 14.66 11.42L14.66 4.57C14.66 4.04 14.07 3.72 13.62 4.02L10.76 5.93C10.72 5.96 10.66 5.92 10.66 5.87L10.66 4C10.66 3.26 10.06 2.66 9.33 2.66L2.66 2.66Z" fill="#707070" fill-opacity="1.000000" fill-rule="evenodd"/>
	</g>
</svg>
