<svg width="20.000000" height="20.000000" viewBox="0 0 20 20" fill="none" xmlns="http://www.w3.org/2000/svg" xmlns:xlink="http://www.w3.org/1999/xlink">
	<desc>
			Created with Pixso.
	</desc>
	<defs>
		<clipPath id="clip2_2381">
			<rect id="art_and_culture.svg" rx="0.000000" width="19.047619" height="19.047619" transform="translate(0.476190 0.476190)" fill="white" fill-opacity="0"/>
		</clipPath>
		<clipPath id="clip2_2380">
			<rect id="art_and_culture.svg fill" rx="0.000000" width="19.000000" height="19.000000" transform="translate(0.500000 0.500000)" fill="white" fill-opacity="0"/>
		</clipPath>
		<clipPath id="clip2_2379">
			<rect id="art_and_culture.svg" rx="0.000000" width="19.000000" height="19.000000" transform="translate(0.500000 0.500000)" fill="white" fill-opacity="0"/>
		</clipPath>
	</defs>
	<g clip-path="url(#clip2_2379)">
		<g clip-path="url(#clip2_2380)">
			<g clip-path="url(#clip2_2381)">
				<path id="Vector" d="M6.01 14.64C6.5 14.81 7.01 14.91 7.54 14.96C7.01 14.91 6.5 14.81 6.01 14.64ZM10.54 19.71C8.46 19.16 6.91 17.61 6.27 15.71C6.8 15.84 7.35 15.92 7.91 15.93C8.51 17.07 9.56 17.97 10.91 18.33C13.45 19.02 16.06 17.51 16.74 14.97L18.09 9.91C18.16 9.65 18.01 9.39 17.76 9.33L15.17 8.63C15.16 8.12 15.09 7.61 14.97 7.1L18.13 7.95C19.14 8.22 19.75 9.26 19.47 10.28L18.12 15.34C17.23 18.64 13.84 20.6 10.54 19.71ZM9.55 15.78C9.31 16.02 8.96 16.06 8.68 15.9C8.98 15.87 9.28 15.82 9.58 15.76C9.57 15.77 9.56 15.77 9.55 15.78ZM11.85 15.17C11.69 15.13 11.54 15.1 11.38 15.09C11.93 14.8 12.43 14.44 12.87 14.03C13.26 14.22 13.62 14.47 13.92 14.77C14.4 15.25 14.74 15.84 14.91 16.48C15.01 16.86 14.79 17.25 14.41 17.36C14.02 17.46 13.63 17.23 13.53 16.85C13.42 16.45 13.21 16.08 12.91 15.78C12.62 15.49 12.25 15.28 11.85 15.17ZM13.71 13.4C13.67 13.36 13.63 13.31 13.59 13.27C13.93 12.85 14.22 12.39 14.45 11.9C14.52 11.98 14.57 12.07 14.6 12.17C14.62 12.26 14.66 12.33 14.72 12.39C14.78 12.45 14.85 12.49 14.93 12.51C15.01 12.53 15.1 12.53 15.18 12.51C15.26 12.49 15.33 12.45 15.39 12.39C15.67 12.11 16.12 12.11 16.4 12.39C16.68 12.67 16.68 13.12 16.4 13.4C16.17 13.63 15.87 13.8 15.55 13.89C15.23 13.98 14.89 13.98 14.56 13.89C14.24 13.8 13.95 13.63 13.71 13.4Z" fill="#FFAD43" fill-opacity="1.000000" fill-rule="evenodd"/>
				<path id="Vector" d="M10.69 2.15L2.41 4.37C2.16 4.44 2 4.7 2.07 4.95L3.43 10.01C4.11 12.55 6.72 14.06 9.26 13.38C11.8 12.7 13.31 10.09 12.63 7.55L11.27 2.49C11.2 2.24 10.94 2.08 10.69 2.15ZM2.04 2.99C1.02 3.26 0.42 4.31 0.69 5.32L2.05 10.38C2.93 13.69 6.33 15.65 9.63 14.76C12.93 13.88 14.89 10.48 14.01 7.18L12.65 2.12C12.38 1.1 11.33 0.5 10.32 0.77L2.04 2.99Z" fill="#FFAD43" fill-opacity="1.000000" fill-rule="evenodd"/>
				<path id="Vector" d="M4.99 6.64C4.93 6.66 4.87 6.68 4.82 6.72C4.77 6.76 4.73 6.81 4.7 6.86C4.67 6.91 4.65 6.97 4.64 7.04C4.63 7.1 4.64 7.16 4.65 7.22C4.75 7.6 4.53 8 4.15 8.1C3.77 8.2 3.37 7.97 3.27 7.59C3.21 7.35 3.19 7.1 3.22 6.85C3.26 6.6 3.34 6.36 3.46 6.15C3.59 5.93 3.75 5.74 3.95 5.59C4.15 5.44 4.38 5.32 4.62 5.26C4.86 5.19 5.11 5.18 5.36 5.21C5.61 5.24 5.85 5.32 6.06 5.45C6.28 5.57 6.47 5.74 6.62 5.94C6.78 6.14 6.89 6.36 6.95 6.61C7.05 6.99 6.83 7.38 6.45 7.48C6.07 7.58 5.67 7.36 5.57 6.98C5.56 6.91 5.53 6.86 5.49 6.81C5.45 6.76 5.4 6.72 5.35 6.69C5.3 6.66 5.24 6.63 5.17 6.63C5.11 6.62 5.05 6.62 4.99 6.64Z" fill="#FFAD43" fill-opacity="1.000000" fill-rule="evenodd"/>
				<path id="Vector" d="M9.59 5.41C9.47 5.44 9.36 5.52 9.3 5.63C9.24 5.74 9.22 5.87 9.25 5.99C9.35 6.37 9.13 6.76 8.75 6.86C8.37 6.97 7.97 6.74 7.87 6.36C7.74 5.87 7.81 5.35 8.06 4.91C8.31 4.48 8.73 4.16 9.22 4.03C9.71 3.9 10.23 3.96 10.66 4.22C11.1 4.47 11.42 4.89 11.55 5.37C11.65 5.75 11.43 6.15 11.05 6.25C10.66 6.35 10.27 6.12 10.17 5.74C10.14 5.62 10.06 5.52 9.95 5.45C9.84 5.39 9.71 5.37 9.59 5.41Z" fill="#FFAD43" fill-opacity="1.000000" fill-rule="evenodd"/>
				<path id="Vector" d="M4.75 9.88C5.03 9.6 5.48 9.6 5.76 9.88C6.12 10.24 6.56 10.49 7.04 10.62C7.53 10.75 8.04 10.75 8.52 10.62C9.01 10.49 9.45 10.24 9.8 9.88C10.16 9.53 10.41 9.09 10.54 8.6C10.64 8.22 11.04 8 11.42 8.1C11.8 8.2 12.02 8.59 11.92 8.97C11.73 9.7 11.34 10.36 10.81 10.89C10.28 11.42 9.62 11.81 8.89 12C8.16 12.2 7.4 12.2 6.67 12C5.95 11.81 5.28 11.42 4.75 10.89C4.47 10.61 4.47 10.16 4.75 9.88Z" fill="#FFAD43" fill-opacity="1.000000" fill-rule="evenodd"/>
			</g>
		</g>
	</g>
</svg>
