<svg width="20.000000" height="20.000000" viewBox="0 0 20 20" fill="none" xmlns="http://www.w3.org/2000/svg" xmlns:xlink="http://www.w3.org/1999/xlink">
	<desc>
			Created with Pixso.
	</desc>
	<defs>
		<clipPath id="clip2_2369">
			<rect id="health_and_wellness.svg" rx="0.000000" width="18.095238" height="19.047619" transform="translate(0.952753 0.476190)" fill="white" fill-opacity="0"/>
		</clipPath>
		<clipPath id="clip2_2368">
			<rect id="health_and_wellness.svg fill" rx="0.000000" width="19.000000" height="19.000000" transform="translate(0.500000 0.500000)" fill="white" fill-opacity="0"/>
		</clipPath>
	</defs>
	<g clip-path="url(#clip2_2368)">
		<g clip-path="url(#clip2_2369)">
			<path id="Vector" d="M11.98 15.61C12.72 14.13 13.22 11.97 13.22 9.52C13.22 6.5 11.34 3.73 9.98 2.16C9.96 2.13 9.94 2.12 9.92 2.11C9.91 2.11 9.9 2.1 9.89 2.1C9.88 2.1 9.87 2.11 9.86 2.11C9.84 2.12 9.82 2.13 9.8 2.16C8.44 3.73 6.56 6.5 6.56 9.52C6.56 11.97 7.06 14.13 7.8 15.61C8.59 17.19 9.41 17.61 9.89 17.61C10.37 17.61 11.19 17.19 11.98 15.61ZM14.64 9.16C15.21 9.03 15.78 8.95 16.3 8.91C16.69 7.5 16.63 5.98 16.46 4.82C16.46 4.79 16.45 4.78 16.45 4.77C16.44 4.76 16.44 4.76 16.44 4.76C16.43 4.76 16.43 4.76 16.42 4.75C16.41 4.75 16.4 4.75 16.37 4.76C15.62 5 14.74 5.34 13.91 5.83C13.74 5.37 13.54 4.94 13.32 4.52C14.25 3.99 15.19 3.63 15.94 3.4C16.85 3.12 17.74 3.68 17.88 4.62C18.04 5.74 18.13 7.3 17.78 8.87C17.83 8.87 17.87 8.87 17.91 8.87C18.85 8.9 19.51 9.73 19.33 10.66C19 12.36 18.17 14.99 16.14 16.61C14.02 18.29 11.7 19.18 10 19.11C8.29 19.18 5.97 18.29 3.85 16.61C1.82 14.99 0.99 12.36 0.66 10.66C0.48 9.73 1.14 8.9 2.08 8.87C2.12 8.87 2.16 8.87 2.21 8.87C1.86 7.3 1.95 5.74 2.11 4.62C2.25 3.68 3.14 3.12 4.05 3.4C4.76 3.62 5.63 3.95 6.51 4.43C6.29 4.84 6.08 5.28 5.9 5.73C5.13 5.29 4.32 4.98 3.62 4.76C3.59 4.75 3.58 4.75 3.57 4.75C3.56 4.76 3.56 4.76 3.55 4.76C3.55 4.76 3.55 4.76 3.54 4.77C3.54 4.78 3.53 4.79 3.53 4.82C3.36 5.98 3.3 7.5 3.69 8.91C4.15 8.94 4.64 9.01 5.14 9.11C5.29 5.73 7.36 2.8 8.71 1.23C9.35 0.49 10.43 0.49 11.07 1.23C12.43 2.81 14.5 5.75 14.64 9.16ZM12.84 16.99C13.81 15.46 14.47 13.21 14.62 10.63C15.75 10.33 16.91 10.27 17.86 10.3C17.89 10.3 17.91 10.31 17.91 10.31C17.92 10.31 17.92 10.32 17.92 10.32C17.93 10.32 17.93 10.33 17.93 10.33C17.93 10.34 17.93 10.36 17.93 10.39C17.61 12 16.87 14.2 15.25 15.49C14.43 16.14 13.61 16.64 12.84 16.99ZM6.85 16.85C6.17 16.51 5.45 16.06 4.74 15.49C3.12 14.2 2.38 12 2.06 10.39C2.05 10.36 2.06 10.34 2.06 10.33C2.06 10.33 2.06 10.32 2.07 10.32C2.07 10.32 2.07 10.31 2.08 10.31C2.08 10.31 2.1 10.3 2.13 10.3C3.02 10.27 4.1 10.32 5.16 10.58C5.3 13.09 5.92 15.31 6.85 16.85Z" fill="#31775A" fill-opacity="1.000000" fill-rule="evenodd"/>
		</g>
	</g>
</svg>
