<svg width="20.000000" height="20.000000" viewBox="0 0 20 20" fill="none" xmlns="http://www.w3.org/2000/svg" xmlns:xlink="http://www.w3.org/1999/xlink">
	<desc>
			Created with Pixso.
	</desc>
	<defs>
		<clipPath id="clip2_2357">
			<rect id="hobbies_and_passions.svg" rx="0.000000" width="17.272728" height="19.090910" transform="translate(1.363725 0.454545)" fill="white" fill-opacity="0"/>
		</clipPath>
		<clipPath id="clip2_2356">
			<rect id="hobbies_and_passions.svg fill" rx="0.000000" width="19.000000" height="19.000000" transform="translate(0.500000 0.500000)" fill="white" fill-opacity="0"/>
		</clipPath>
	</defs>
	<g clip-path="url(#clip2_2356)">
		<g clip-path="url(#clip2_2357)">
			<path id="Vector" d="M5.98 2.23L6.93 3.25C6.97 3.28 7.01 3.32 7.05 3.36L8.44 4.8L9.58 2.23L5.98 2.23ZM4.26 2.39L5.51 3.73L1.5 12.44C1.35 12.78 1.42 13.18 1.68 13.45L3.02 14.84C3.04 14.87 3.06 14.9 3.09 14.93L6.75 18.71C7.05 19.02 7.47 19.19 7.9 19.19L12.74 19.19C13.08 19.19 13.36 18.94 13.41 18.61C13.51 18.55 13.6 18.47 13.67 18.36L18.37 11.58C18.76 11.02 18.41 10.27 17.77 10.17L16.68 6.81C16.48 6.21 15.75 5.99 15.25 6.38L10.8 9.9C10.7 9.98 10.63 10.06 10.57 10.16L7.66 10.16C7.62 10.16 7.58 10.16 7.55 10.16L9.2 6.42C9.23 6.35 9.25 6.29 9.27 6.22C9.31 6.16 9.35 6.1 9.38 6.03L11.11 2.14C11.38 1.54 10.94 0.86 10.28 0.86L4.93 0.86C4.13 0.86 3.72 1.81 4.26 2.39ZM11.76 17.83L6.94 11.62C6.93 11.61 6.92 11.6 6.92 11.59L5.3 15.25L7.73 17.76C7.78 17.8 7.84 17.83 7.9 17.83L11.76 17.83ZM2.87 12.73L6.52 4.81L7.81 6.2L4.28 14.18L2.87 12.73ZM8.58 11.52L12.91 17.08L16.75 11.53L11.36 11.53C11.33 11.53 11.29 11.52 11.26 11.52L8.58 11.52ZM16.34 10.16L12.68 10.16L15.59 7.86L16.34 10.16Z" fill="#FFAD43" fill-opacity="1.000000" fill-rule="evenodd"/>
		</g>
	</g>
</svg>
