<svg width="20.000000" height="20.000000" viewBox="0 0 20 20" fill="none" xmlns="http://www.w3.org/2000/svg" xmlns:xlink="http://www.w3.org/1999/xlink">
	<desc>
			Created with Pixso.
	</desc>
	<defs>
		<clipPath id="clip2_2351">
			<rect id="social_activities.svg" rx="0.000000" width="18.000000" height="19.000000" transform="translate(1.000000 0.500000)" fill="white" fill-opacity="0"/>
		</clipPath>
		<clipPath id="clip2_2350">
			<rect id="social_activities.svg fill" rx="0.000000" width="19.000000" height="19.000000" transform="translate(0.500000 0.500000)" fill="white" fill-opacity="0"/>
		</clipPath>
		<clipPath id="clip2_2349">
			<rect id="social_activities.svg" rx="0.000000" width="19.000000" height="19.000000" transform="translate(0.500000 0.500000)" fill="white" fill-opacity="0"/>
		</clipPath>
	</defs>
	<g clip-path="url(#clip2_2349)">
		<g clip-path="url(#clip2_2350)">
			<g clip-path="url(#clip2_2351)">
				<path id="Vector" d="M0.67 17.25C1.13 17.46 1.59 17.66 2.06 17.84C4.5 18.76 7.13 19.27 9.89 19.27C12.65 19.27 15.29 18.76 17.72 17.84C18.19 17.66 18.66 17.46 19.11 17.25L18.4 15.93L17.46 14.19L16.68 12.75L10.74 1.71L9.89 0.13L9.04 1.71L1.39 15.93L0.67 17.25ZM9.89 3.29L15.27 13.29C13.58 13.86 11.77 14.16 9.89 14.16C8.01 14.16 6.2 13.85 4.51 13.29L9.89 3.29ZM9.89 15.79C7.73 15.79 5.66 15.43 3.73 14.75L2.78 16.5C4.99 17.32 7.39 17.77 9.89 17.77C12.39 17.77 14.79 17.32 17 16.5L16.06 14.75C14.13 15.43 12.05 15.79 9.89 15.79ZM11.5 12C12.05 12 12.5 11.55 12.5 11C12.5 10.44 12.05 10 11.5 10C10.94 10 10.5 10.44 10.5 11C10.5 11.55 10.94 12 11.5 12ZM9.18 12C9.18 12.55 8.73 13 8.18 13C7.63 13 7.18 12.55 7.18 12C7.18 11.44 7.63 11 8.18 11C8.73 11 9.18 11.44 9.18 12ZM9.82 9C10.37 9 10.82 8.55 10.82 8C10.82 7.44 10.37 7 9.82 7C9.27 7 8.82 7.44 8.82 8C8.82 8.55 9.27 9 9.82 9Z" fill="#7A1D47" fill-opacity="1.000000" fill-rule="evenodd"/>
			</g>
		</g>
	</g>
</svg>
