<svg width="20.000000" height="20.000000" viewBox="0 0 20 20" fill="none" xmlns="http://www.w3.org/2000/svg" xmlns:xlink="http://www.w3.org/1999/xlink">
	<desc>
			Created with Pixso.
	</desc>
	<defs>
		<clipPath id="clip2_2363">
			<rect id="sports_and_fitness.svg" rx="0.000000" width="19.000000" height="19.000000" transform="translate(0.500000 0.500000)" fill="white" fill-opacity="0"/>
		</clipPath>
		<clipPath id="clip2_2362">
			<rect id="sports_and_fitness.svg fill" rx="0.000000" width="19.000000" height="19.000000" transform="translate(0.500000 0.500000)" fill="white" fill-opacity="0"/>
		</clipPath>
		<clipPath id="clip2_2361">
			<rect id="sports_and_fitness.svg" rx="0.000000" width="19.000000" height="19.000000" transform="translate(0.500000 0.500000)" fill="white" fill-opacity="0"/>
		</clipPath>
	</defs>
	<g clip-path="url(#clip2_2361)">
		<g clip-path="url(#clip2_2362)">
			<g clip-path="url(#clip2_2363)">
				<path id="Vector" d="M11.81 18.3C11.22 18.43 10.62 18.5 10 18.5C9.35 18.5 8.72 18.42 8.11 18.29L7.32 15.78L8.26 14.15L11.79 14.15L12.55 15.91L11.81 18.3ZM13.56 17.71C14.3 17.37 14.98 16.93 15.59 16.4L13.99 16.34L13.56 17.71ZM16.91 14.94C17.78 13.72 18.34 12.27 18.47 10.69L16.19 8.95L14.36 9.45L13.12 13.44L13.72 14.83L16.91 14.94ZM18.41 8.76C18.28 7.87 18.01 7.02 17.62 6.24L17.14 7.79L18.41 8.76ZM16.57 4.6L15.64 7.55L13.92 8.02L10.81 5.65L10.81 3.87L13.24 2.14C14.55 2.68 15.68 3.53 16.57 4.6ZM11.4 1.61L10.18 2.47L8.98 1.55C9.31 1.52 9.65 1.5 10 1.5C10.47 1.5 10.94 1.53 11.4 1.61ZM7.39 0.34C6.81 0.49 6.25 0.7 5.72 0.95C4.6 1.48 3.59 2.21 2.75 3.1L2.75 3.1C2.3 3.57 1.9 4.09 1.54 4.64L1.55 4.64C0.56 6.19 0 8.03 0 10C0 10.05 0 10.11 0 10.17L0 10.17C0 10.77 0.07 11.35 0.18 11.92L0.18 11.92C0.41 13.1 0.85 14.21 1.45 15.2L1.45 15.2C1.77 15.72 2.14 16.21 2.54 16.66L2.54 16.66C3.71 17.97 5.22 18.96 6.92 19.51C7.47 19.69 8.03 19.82 8.61 19.9C9.07 19.96 9.53 20 10 20C15.52 20 20 15.52 20 10C20 4.47 15.52 0 10 0C9.09 0 8.22 0.11 7.39 0.34ZM6.35 17.67L5.99 16.55L4.64 16.59C5.16 17.02 5.73 17.38 6.35 17.67ZM3.23 15.14L6.01 15.05L7.02 13.29L5.85 9.51L3.98 9.01L1.54 10.88C1.7 12.47 2.31 13.93 3.23 15.14ZM1.56 8.98L2.84 7.99L2.84 7.99L2.33 6.33C1.93 7.15 1.67 8.04 1.56 8.98ZM3.38 4.66L4.28 7.54L6.21 8.06L9.31 5.7L9.31 3.69L7.1 2C5.62 2.54 4.34 3.47 3.38 4.66ZM11.8 12.65L8.8 12.65L8.31 12.37L7.3 9.12L10.1 6.99L12.89 9.12L11.8 12.65Z" fill="#008294" fill-opacity="1.000000" fill-rule="evenodd"/>
			</g>
		</g>
	</g>
</svg>
