<svg width="20.000000" height="20.000000" viewBox="0 0 20 20" fill="none" xmlns="http://www.w3.org/2000/svg" xmlns:xlink="http://www.w3.org/1999/xlink">
	<desc>
			Created with Pixso.
	</desc>
	<defs>
		<clipPath id="clip2_2375">
			<rect id="technology.svg" rx="0.000000" width="18.947369" height="18.947369" transform="translate(0.526316 0.526316)" fill="white" fill-opacity="0"/>
		</clipPath>
		<clipPath id="clip2_2374">
			<rect id="technology.svg fill" rx="0.000000" width="19.000000" height="19.000000" transform="translate(0.500000 0.500000)" fill="white" fill-opacity="0"/>
		</clipPath>
	</defs>
	<g clip-path="url(#clip2_2374)">
		<g clip-path="url(#clip2_2375)">
			<path id="Vector" d="M15.43 9.49L16.64 9.49C17.88 9.49 18.85 10.55 18.74 11.78L18.09 19.11C18.05 19.52 17.71 19.83 17.3 19.83C16.84 19.83 16.47 19.43 16.51 18.97L17.17 11.64C17.19 11.33 16.95 11.07 16.64 11.07L2.3 11.07C1.99 11.07 1.74 11.33 1.77 11.64L2.42 18.97C2.47 19.43 2.1 19.83 1.64 19.83C1.23 19.83 0.89 19.52 0.85 19.11L0.2 11.78C0.09 10.55 1.06 9.49 2.3 9.49L3.4 9.49C3.3 8.74 3.25 8.03 3.25 7.4C3.25 6.99 3.27 6.58 3.32 6.18L0.78 6.18C0.35 6.18 0 5.83 0 5.39C0 4.96 0.35 4.6 0.78 4.6L3.42 4.6C3.49 4.6 3.57 4.61 3.63 4.63C4.43 2.02 6.41 0.18 9.42 0.18C12.44 0.18 14.43 2.03 15.21 4.67C15.31 4.63 15.41 4.6 15.52 4.6L18.16 4.6C18.59 4.6 18.94 4.96 18.94 5.39C18.94 5.83 18.59 6.18 18.16 6.18L15.52 6.18L15.52 6.18C15.57 6.58 15.59 6.99 15.59 7.4C15.59 8.03 15.54 8.74 15.43 9.49ZM13.83 9.49C13.95 8.73 14.01 8.01 14.01 7.4C14.01 5.68 13.54 4.25 12.77 3.28C12.03 2.35 10.94 1.76 9.42 1.76C7.9 1.76 6.81 2.35 6.07 3.28C5.3 4.25 4.82 5.68 4.82 7.4C4.82 8.01 4.88 8.73 5 9.49L13.83 9.49ZM8.27 6.16C8.27 6.45 8.04 6.69 7.75 6.69C7.46 6.69 7.22 6.45 7.22 6.16C7.22 5.87 7.46 5.63 7.75 5.63C8.04 5.63 8.27 5.87 8.27 6.16ZM9.33 6.16C9.33 7.03 8.62 7.74 7.75 7.74C6.87 7.74 6.17 7.03 6.17 6.16C6.17 5.29 6.87 4.58 7.75 4.58C8.62 4.58 9.33 5.29 9.33 6.16ZM11.19 6.69C11.48 6.69 11.72 6.45 11.72 6.16C11.72 5.87 11.48 5.63 11.19 5.63C10.9 5.63 10.67 5.87 10.67 6.16C10.67 6.45 10.9 6.69 11.19 6.69ZM11.19 7.74C12.06 7.74 12.77 7.03 12.77 6.16C12.77 5.29 12.06 4.58 11.19 4.58C10.32 4.58 9.61 5.29 9.61 6.16C9.61 7.03 10.32 7.74 11.19 7.74ZM5.38 15.26L5.38 14.21L8.54 14.21L8.54 15.26L5.38 15.26ZM3.8 13.15C3.8 12.86 4.04 12.63 4.33 12.63L9.59 12.63C9.88 12.63 10.12 12.86 10.12 13.15L10.12 16.31C10.12 16.6 9.88 16.84 9.59 16.84L4.33 16.84C4.04 16.84 3.8 16.6 3.8 16.31L3.8 13.15ZM10.93 13.59C10.93 13.16 11.28 12.8 11.72 12.8L14.35 12.8C14.79 12.8 15.14 13.16 15.14 13.59C15.14 14.03 14.79 14.38 14.35 14.38L11.72 14.38C11.28 14.38 10.93 14.03 10.93 13.59ZM11.72 14.96C11.28 14.96 10.93 15.31 10.93 15.74C10.93 16.18 11.28 16.53 11.72 16.53L14.35 16.53C14.79 16.53 15.14 16.18 15.14 15.74C15.14 15.31 14.79 14.96 14.35 14.96L11.72 14.96Z" fill="#7A1D47" fill-opacity="1.000000" fill-rule="evenodd"/>
		</g>
	</g>
</svg>
