<svg width="20.000000" height="20.000000" viewBox="0 0 20 20" fill="none" xmlns="http://www.w3.org/2000/svg" xmlns:xlink="http://www.w3.org/1999/xlink">
	<desc>
			Created with Pixso.
	</desc>
	<defs>
		<clipPath id="clip2_2345">
			<rect id="travel_and_outdoor.svg" rx="0.000000" width="19.000000" height="19.000000" transform="translate(0.500000 0.500000)" fill="white" fill-opacity="0"/>
		</clipPath>
		<clipPath id="clip2_2344">
			<rect id="travel_and_outdoor.svg fill" rx="0.000000" width="19.000000" height="19.000000" transform="translate(0.500000 0.500000)" fill="white" fill-opacity="0"/>
		</clipPath>
	</defs>
	<g clip-path="url(#clip2_2344)">
		<g clip-path="url(#clip2_2345)">
			<path id="Vector" d="M5.68 2.68L3.75 5.08C4.56 5.5 4.9 6.58 4.32 7.42L2.78 9.62L8.29 9.62L6.75 7.42C6.11 6.51 6.57 5.31 7.54 4.99L5.68 2.68ZM9.39 4.9L6.07 0.78C5.87 0.53 5.49 0.53 5.29 0.78L1.97 4.9L1.96 4.91L1.8 5.1L1.41 5.59C1.24 5.81 1.28 6.1 1.46 6.27C1.5 6.31 1.55 6.34 1.61 6.36C1.67 6.39 1.73 6.4 1.8 6.4L2.42 6.4L2.67 6.4L2.68 6.4L2.86 6.4L3.01 6.4C3.09 6.4 3.14 6.49 3.09 6.56L3.01 6.67L2.29 7.7L2.15 7.9L0.94 9.62L0.94 9.62L0.85 9.75L0.44 10.33C0.21 10.66 0.45 11.12 0.85 11.12L1.57 11.12L1.72 11.12L1.72 11.12L4.8 11.12L4.8 13.83C4.42 13.79 4.04 13.77 3.65 13.77C2.94 13.77 2.25 13.83 1.59 13.96C1.16 14.03 0.91 14.48 1.05 14.89C1.17 15.27 1.56 15.48 1.95 15.41C2.5 15.32 3.07 15.27 3.65 15.27C6.84 15.27 9.69 16.77 11.52 19.12C11.73 19.38 12.08 19.5 12.4 19.4C12.88 19.24 13.08 18.68 12.77 18.28C12.09 17.39 11.29 16.61 10.38 15.95C12.2 14.02 14.78 12.82 17.64 12.82C18.12 12.82 18.61 12.86 19.08 12.92C19.55 12.99 20 12.64 20 12.16C20 11.81 19.75 11.51 19.41 11.46C18.83 11.37 18.24 11.32 17.64 11.32C17.25 11.32 16.87 11.34 16.5 11.38L16.5 9.21L18.18 9.21L18.19 9.21L18.34 9.21L19.05 9.21C19.46 9.21 19.7 8.76 19.46 8.43L19.05 7.84L18.97 7.72L18.96 7.71L18.36 6.85L18.22 6.65L17.5 5.62L17.42 5.51C17.37 5.44 17.42 5.35 17.5 5.35L17.62 5.35L17.64 5.35L17.64 5.35L17.88 5.35L18.5 5.35C18.66 5.35 18.79 5.28 18.88 5.18C18.9 5.15 18.93 5.12 18.95 5.08C19.03 4.91 19.03 4.7 18.89 4.54L18.5 4.05L18.35 3.86L18.34 3.85L15.91 0.83C15.71 0.58 15.33 0.58 15.13 0.83L12.69 3.85L12.68 3.86L12.53 4.05L12.14 4.54C12.07 4.62 12.04 4.72 12.03 4.81C12.03 4.82 12.03 4.83 12.03 4.85C12.03 5.1 12.23 5.35 12.53 5.35L13.15 5.35L13.29 5.35C13.33 5.35 13.36 5.37 13.37 5.39L13.38 5.39C13.4 5.43 13.4 5.47 13.37 5.51L13.29 5.62L12.57 6.65L12.53 6.71L12.44 6.85L11.83 7.71L11.83 7.72L11.74 7.84L11.33 8.43C11.1 8.76 11.33 9.21 11.74 9.21L12.45 9.21L12.6 9.21L12.61 9.21L15 9.21L15 11.62C12.73 12.16 10.72 13.36 9.19 15.02C9.15 15.06 9.12 15.1 9.1 15.14C8.23 14.67 7.29 14.31 6.3 14.08L6.3 11.12L9.34 11.12L9.34 11.12L9.5 11.12L10.21 11.12C10.61 11.12 10.85 10.66 10.62 10.33L10.21 9.75L10.12 9.62L10.12 9.62L8.91 7.9L8.78 7.7L8.06 6.67L7.97 6.56C7.93 6.49 7.98 6.4 8.06 6.4L8.2 6.4L8.68 6.4L8.69 6.4L8.94 6.4L9.45 6.4L9.56 6.4C9.6 6.4 9.64 6.4 9.68 6.38C10.02 6.3 10.18 5.88 9.95 5.59L9.56 5.1L9.4 4.91L9.39 4.9ZM14.32 4.22L15.52 2.74L16.62 4.11C15.91 4.57 15.64 5.58 16.19 6.37L17.13 7.71L13.66 7.71L14.6 6.37C15.11 5.64 14.92 4.72 14.32 4.22Z" fill="#31775A" fill-opacity="1.000000" fill-rule="evenodd"/>
		</g>
	</g>
</svg>
